<mxfile host="app.diagrams.net" modified="2024-05-25T18:51:04.081Z" agent="Mozilla/5.0 (Linux; Android 10; K) AppleWebKit/537.36 (KHTML, like Gecko) Chrome/125.0.0.0 Safari/537.36" version="24.4.8" etag="QzaDD253dtn8DTlVdMjQ" type="github">
  <diagram name="Page-1" id="2Swtk4GXZxvfL0GIw5GJ">
    <mxGraphModel>
      <root>
        <mxCell id="0" />
        <mxCell id="1" parent="0" />
      </root>
    </mxGraphModel>
  </diagram>
</mxfile>
